<svg xmlns="http://www.w3.org/2000/svg" width="1024" height="1024" baseProfile="tiny-ps" version="1.2" viewBox="0 0 1024 1024"><title>IT Help San Diego</title><path fill="#0d1117" d="M0 0h1024v1024H0z"/><g fill="#bfa16f"><path d="m475 72-16 2-21 3c-36 6-58 12-90 25-24 9-66 32-90 49-35 25-70 59-97 93-18 23-40 61-53 92-5 12-15 37-16 44l-3 11c-11 36-16 71-16 117 0 50 4 78 15 119 9 34 29 81 44 104l5 9 23 33q3 6 8 10c26 34 62 68 97 92 32 21 51 31 89 47l35 12c79 25 174 24 254-2q76-25 135-69c30-22 69-63 92-95 43-62 71-134 78-206 4-37 4-68 0-107q-7-67-39-137c-35-75-94-141-168-185-12-8-44-24-55-28q-59-24-120-32c-9 0-85-2-91-1m35 11 2 2 1 19 1 27 2 9 19 3 27 2c12 1 12 1 14-13 3-16 3-17-4-17q-6-1-8 9c-2 9-2 9-10 8l-16-1-11-1v-28l1-17 2-2c3-1 27 0 52 4l40 8q3 0 0 9l-5 19-5 18-2 9-1 4 21 7 27 9c9 3 10 2 14-5q8-15 6-18c-1-4-9-6-11-3q-7 15-10 14l-26-9-5-4c0-5 12-40 14-42s3-2 17 3c26 10 67 29 68 32q2 1-1 5l-6 11-7 12q-10 18-10 23-1 1 10 9l22 15q13 10 15 10 2 1 9-10c8-11 9-13 5-17q-6-6-14 6l-5 4c-1 0-23-15-25-18l-2-2 1-4 7-11 12-18 5-5c2-1 19 10 40 27 14 11 32 27 32 29 1 2-1 4-18 22l-18 19q-2 2 7 13l24 29c5 6 7 6 15 0 13-10 15-13 10-18q-3-4-11 2l-8 4c-3-1-21-23-21-25q-1-2 15-17l16-15 2-1 2 2c9 8 39 47 49 63 6 11 6 12 1 15-8 5-27 16-35 19q-10 6-10 8l9 20 13 25q3 11 12 6l12-5 6-3v-3q0-11-13-5c-8 3-8 3-16-12q-9-18-4-19c3-3 34-18 37-18h3l6 11 13 30q16 40 13 45l-5 3-13 3-13 4c-7 2-17 5-19 7q-3 3-2 10l6 30q2 14 5 17l11 1 13-1q4-4 3-10l-1-3h-9l-9-1c-2-1-6-22-6-29 0-4 1-5 13-8 27-6 32-6 33-3l7 45c2 15 4 32 3 40v7l-29 1h-28c-1 1-4 29-5 50l1 10c2 2 21 4 24 3q7-3 3-11-1-2-7-2l-7-2-2-1 1-14 1-17 1-3 21 1 23 1q2 0 2 3c2 5-5 57-9 74l-1 8q-1 8-6 8l-11-2-17-4-15-4-8-2q-4 0-9 16l-3 9-7 23c-3 9-2 11 10 16q15 6 16-4 2-5-9-9l-5-2v-3l2-7 5-12 4-9q0-3 22 3 22 7 22 11c1 2-5 19-12 36s-20 44-22 46q-3 3-9 0l-10-6-14-8q-19-12-21-10-3 1-6 6l-12 18-10 15c-6 9-6 12 8 22q10 8 15 0 4-3-5-10-7-4-7-7c0-2 14-22 17-25s4-2 15 4l16 10q14 8 12 9c0 2-12 19-26 38q-26 35-32 36-2 1-22-19l-21-20-10 8q-13 13-27 23-9 6-4 13l10 15q2 2 5 2 6-3 7-7l-4-6c-6-7-5-9 1-14l20-17 30 31q5 3-3 9c-13 13-24 22-49 39q-14 9-20 11c-3 1-4 1-12-14l-8-14-6-11q-3-7-7-7l-28 11-15 7c-11 4-11 4-7 14l3 11q4 11 12 6c3-3 4-4 1-12l-2-8 29-15q3 0 4 5l6 10c5 8 12 23 12 26s-4 6-22 13c-28 12-54 21-60 22h-5l-2-5-5-17c-9-32-9-31-18-30l-11 1-12 2-13 3-8 1-5 1q-2 2-2 5l2 10q2 21 11 13l3-2-1-8-1-9h2l6-1 6-1c6-2 19-4 20-3l9 24 2 9q3 10 0 12c-6 5-91 15-95 10l-1-28c0-22-1-27-2-28s-31-4-47-4c-10-1-11 0-13 11l-1 12q2 5 7 6 5 2 6-9l3-9h18c14 2 15 2 16 4 1 1 0 38-1 44-1 2-3 3-20 1-23-2-59-7-69-11-6-3-6-4 1-29 6-23 7-28 6-29l-14-5-29-11c-13-5-14-5-19 8q-5 12-2 15 1 4 5 4 5 1 6-7c4-9 5-10 18-5l12 4q7 2 8 5l-3 12-5 19c-3 11-4 12-7 12l-27-9-15-7-25-11-8-5q-11-5-11-9l20-37c7-10 6-12-6-20l-26-19c-10-8-11-8-20 5q-10 13-4 16 5 4 12-5 4-5 6-5l12 7 8 5q8 6 7 7l-11 21-7 12q-3 6-6 6c-8 0-73-53-73-59l28-31 6-5 4-7-18-22-14-16c-5-8-7-8-16 0l-10 7c-4 3-1 12 4 12l7-4 7-4q3 1 13 13l7 8 3 6-21 20q-12 11-15 9c-3-2-26-30-37-44l-6-10c-4-5-12-17-12-19-1-2 1-4 15-12l31-19c2-2 1-5-4-17l-10-21-7-13-2-3-4 1c-8 1-19 5-21 8v5q0 9 12 4 8-3 9-2l4 9 6 11 2 8 1 3-4 3-28 15c-8 4-9 3-13-5-5-9-18-41-21-49l-5-14-3-12v-6l6-2 32-9c12-3 14-4 14-9l-4-27-3-16-3-11-12-1c-14 1-16 1-16 8q-1 8 11 7c9 0 9 0 11 9q4 22 3 25 0 2-14 5c-24 5-30 5-31 3-4-7-13-87-10-91l28-1h28l2-15 4-37c1-9 1-10-6-11l-11-1q-13-3-13 6-1 5 10 7l8 2c1 2-2 29-3 33l-1 2-21-1-23-1-2-1v-12l4-38 9-41q2-3 9-1l25 7 23 5 1-2 5-10 7-20 5-17 1-5-1-2c-3-3-17-10-21-10q-7 0-7 8-2 3 10 7c6 2 6 3 3 12l-3 8c0 2-4 13-6 14l-1 2-17-5-19-6-6-2-3-1 1-3c1-8 15-41 25-61q11-22 13-22l18 9q22 13 30 16c4 3 3 4 21-24l11-19 2-4-1-3-7-6q-13-10-16-5-5 4 3 11 6 6 5 8l-17 25c-2 2-4 1-17-7l-16-11q-9-4-6-9l15-22c12-15 39-46 42-47 2-1 3-1 23 20l21 19 8-7 20-17c15-13 15-13 15-16s-8-15-12-19q-7-4-11 0-3 4 1 9l4 7 2 4-1 1-5 5-11 9q-8 8-9 6l-16-16c-18-18-18-17-9-25l36-29c10-7 31-20 33-20l8 12 7 12 6 10 4 7 3 6q2 5 16-3l11-6 11-5c16-7 19-8 18-12 0-3-7-19-9-22q-4-3-10 0-3 2 0 12l3 7q0 4-10 7l-10 4q-10 6-13 1c-3-5-19-33-19-36l-1-2 6-4q23-12 57-24c19-6 24-7 26-5q3 3 8 26l5 15 1 6 1 4 2 2 7-1 11-1 15-3 25-5 2-2-1-12-3-14c-1-2-7-2-9 0-1 1-2 2-1 11l-1 7c-3 2-31 8-34 6-2 0-3-3-8-23-4-17-4-21-1-23 4-3 35-8 56-10z"/><path d="m490 91-15 2-40 5c-3 2-4 4-1 15l3 13c2 3 10 4 12 2q2-2 1-8v-11c2-2 33-5 34-4l4 36v9l-2 1-7 1-10 1-11 1-13 3-13 2-13 3c-10 3-10 3-13-8l-13-40-4-4c-3-1-25 7-56 21-8 3-7 5 3 24q6 12 13 4 3-4 0-13l-2-6q2-4 21-10l13-3 3 9 7 17 3 13v3l-9 4c-9 4-13 5-40 19l-19 8c-4 2-4 1-17-18-16-25-16-26-19-26q-3 0-35 23l-18 15c0 3 2 6 14 20q5 7 11 1 7-4-2-13l-4-7c0-1 23-19 27-20q2-1 6 5l7 10c8 10 13 20 13 21l-10 9-37 31-12 9q-5-1-23-18c-21-20-22-21-26-16-13 16-37 45-38 48q-1 4 8 10 17 12 21 5 6-6-7-15l-3-3q1-5 7-11l7-8 7-8c2 0 27 19 33 26 3 4 3 4-11 21-6 8-15 20-19 28-10 15-12 18-14 18l-25-12-25-12c-2 1-4 4-11 17l-12 30q-5 12-1 17c2 2 14 6 21 6q9 2 8-7 3-4-9-9-6-2-6-5 0-5 9-23 4-8 6-7c4 0 36 16 37 19l2 2-2 5-3 7c-5 11-12 31-17 48l-3 7c-2 5-2 5-14 3l-16-4-9-2-18-3-3 9c-4 16-8 41-9 51s-1 9 16 9h13l1-1q5-6 0-10-1-2-7-3c-8-1-9-1-8-10l5-27 8 1 12 2 9 2 8 1c6 1 7 3 5 17l-1 18-2 27v17l-3 1-21 2-35 4q-2 5 1 26l2 13c2 21 3 25 8 26 6 1 24-3 26-6 1-2 0-9-2-10q-1-3-9-1l-9-1c-1-2-5-30-4-32 0-2 4-2 20-3l19-2c7 0 7 0 8 10l4 26 1 7 3 12 3 13 1 7-1 2q-4 4-31 12c-18 5-21 7-19 15 6 19 17 48 21 54q2 5 14-3c13-6 13-7 13-11q0-7-6-8l-8 2-7 2c-3-2-12-25-11-30v-4l18-6 20-6 4 2 8 21 20 39c6 9 6 9-6 17l-16 9-13 8-6 5q-2 3 4 13c8 13 32 44 34 44q2 2 13-9c8-7 9-8 9-11q0-7-7-7l-8 3c-7 5-8 5-13-2l-7-9c-4-4-9-13-8-14l4-4 32-20c2 0 13 13 23 27l20 23 8 10q0 3-22 26c-14 14-15 15-14 17q3 6 36 32c16 12 17 12 21 8 3-4 12-19 12-22q-1-6-8-7-3 0-9 9c-4 6-4 6-23-9q-10-9-9-10c0-2 27-33 28-33q2-1 6 2l7 6 8 6q19 15 31 21l13 8 1 2-1 3-11 24c-13 25-13 28-4 31l18 8 18 8 9 3c10 4 10 4 17-20q3-7-3-9-7-3-11 8l-2 6h-7l-5-3c-7-2-19-8-21-10l-2-3c0-3 15-31 18-36q1-4 9 0l20 8 13 4c10 4 11 5 23 8l11 3q1 3-2 15c-4 14-9 38-8 40q2 5 11 6c16 3 53 7 55 5q3 2 2-13l1-12-2-2-5-2q-8-1-8 10l-1 7q-1 2-22-2c-16-2-16-3-11-25q4-21 6-22l2-1 14 1c14 2 45 5 57 5h7l1 18c0 32 1 38 3 40q1 2 3 1l11-1c35-3 48-5 50-8 2-1 1-11 0-17l-2-6q-1-7-7-6-10-1-7 8c1 11 1 12-1 13-3 1-30 3-33 2q-2 0-2-3c-2-9-3-37-2-40 0-3 0-3 17-5l13-1 12-3 22-4q12-3 14-2l10 32c7 22 7 22 10 22 4 0 55-20 59-23 3-2 3-4-3-15q-6-15-11-13-9-1-5 12c3 10 5 9-17 18-12 5-13 4-16-3-4-7-11-29-11-33v-3l7-3 10-5c6-1 31-14 42-20s12-6 15 0l6 10 12 19c8 13 10 15 15 12l7-5 20-15q23-16 22-19c0-4-15-21-19-22-3-1-10 4-10 8q1 4 7 10c5 4 4 6-13 18q-9 8-13 7c-1 0-5-5-20-28q-6-7-4-8 1-3 12-11c14-12 22-18 35-31l12-10 11 9 28 25q3 3 7 1c3-2 24-29 33-42 6-10 6-11-5-19-12-8-14-8-19-3q-7 5 3 12c7 6 7 7 0 17q-11 17-14 16l-5-2-16-14c-13-11-14-13-10-16l33-48c7-11 7-12 10-12l45 22 5 2h2l4-9c10-21 20-48 20-53q0-3-8-6l-9-2q-10-4-14 3-3 7 8 11l6 2q2 3-1 10c-10 21-11 24-13 24l-20-9-19-11 8-21 14-40 3-10 1-2h5l29 6 19 2q4 1 4-2c3-6 7-33 9-56v-7l-2-1c-5-3-25-4-27-2l-1 6q-1 10 8 9l6 1h3l-1 12q-1 21-4 24-2 2-39-8c-5-1-6-2-4-18l3-52 1-9 25-2c27-1 33-1 34-3l-4-36c-2-22-3-28-5-29q-1-3-16 0c-12 3-14 4-13 11 1 4 2 5 11 5l9 1 2 7 2 12q2 11-1 15l-2 2-20 1h-21q-2 2-3-9l-9-54-3-12 2-2q3-3 24-9c28-9 27-9 27-13q-1-7-15-44c-6-15-8-17-10-17s-23 10-24 12c-3 3 0 12 4 13l8-3 7-2c3 0 15 27 14 31-1 3-2 3-30 13-13 4-12 5-19-12l-16-33-9-21q0-2 4-5l40-25q6-2-4-14l-10-15c-9-13-20-26-22-27q-4-4-12 3l-8 7q-6 3-6 7 1 6 7 10 3 2 11-5l6-4 15 17q5 7 5 11c0 1-13 11-25 18-12 8-12 8-21-4q-12-19-31-37l-9-11c0-3 6-9 25-30l13-14c0-2-5-7-26-23l-12-9-16-10q-2-1-7 6c-4 6-10 15-10 17q2 6 6 8 5 3 11-7l6-6 27 22q1 3-10 14l-11 12-8 8c-2 0-3 0-21-14l-40-26q-6-3-1-10l6-10 10-19 6-14q1-3-2-4l-29-14-22-9q-6-3-9 0c-2 2-9 20-9 24q-2 6 7 6 7 1 10-9 4-7 7-6l21 10 7 3-1 3c0 3-2 8-12 26q-6 14-8 12l-14-5-32-12c-25-8-26-8-26-10l5-25c5-24 6-30 4-31-1-1-16-4-27-5l-17-3q-18-3-22 1l-2 13v12l2 3q1 2 6 2 5 2 6-10l3-8h14l10 2q12 2 11 6l-1 6-2 10-3 14c-2 11-2 11-17 10l-28-2c-20-1-35-3-36-4-2-1-3-17-3-39l-1-17c-2-2-2-2-10-1m59 73q18 1 55 10c12 3 35 11 49 17l4 1 34 19 12 7c16 9 49 35 59 47l8 10c11 11 25 29 31 39l9 14c7 11 20 36 27 53 6 15 6 16 11 34 10 37 12 50 12 82 2 55-5 94-25 145-7 18-22 47-33 62l-7 11-8 10-10 12c-7 9-34 36-45 44q-32 27-62 41c-31 16-56 24-83 29l-21 4c-27 6-73 6-105 1-38-6-67-15-100-32-25-11-36-18-54-32-25-19-61-54-76-76q-49-68-63-141c-5-28-7-66-5-94 5-64 32-131 74-185 23-29 57-59 89-79 22-14 66-34 87-40 13-4 39-10 49-11 20-4 62-4 87-2"/><path d="M596 237q-3 2-4 6l-1 5-1-4q-4-9-14-7-5 1-6 10l-1 5 4 4 3 3-1 4q-2 7-7 1-4-2-2-5c3-6 1-15-4-17q-6-3-12 2c-3 3-3 3-3 8v4l-3-2c-8-6-19 1-17 11v4l-2-1q-9-2-14 4c-1 3-2 9 0 10v4l-4-1-5-1-3 3-3 3v7q0 7-2 7-5 1-8 7-5 9 3 12l-2 8c-1 8-2 24 0 31l6 14 4 10h-4q-5-3-17-1-5 1-5 3-1 3 6 8 16 16 41 21l7 2 4 1 2-1v-1c2-1 14 0 14 1l4 2q2 1 3-2l4-1 7 2 2 1h-4l2 1 1 1-1 2q2 3-18-1l-17-2c-9 0-23-3-31-7-14-6-18-9-33-24q-23-23-32-22-7-2-3 6c6 12 18 27 28 33l7 5 1 1h1l1 1q-1 2 1 2h2l2 1h2l1 2 1-1h1l4 1 12 4q13 5 24 6l17 3 21 3 33 5 2 2v2h-6c-17-2-55-8-70-12-39-10-53-16-66-28q-7-8-10-8l-11 6q-12 7-12 11h-2l-7 3-11 9c-18 15-35 33-38 40l-3 4q-3 0-32 43c-25 37-34 55-33 65 1 4 0 5-3 11-6 10-11 28-9 31q1 2-4 11-9 18-9 28 1 5-2 9-7 11-8 21l-1 4h2l5-2 3-1c1 2 5 0 27-14l24-16v9l-2 1q-3 0-5 5l-4 10-6 12-7 18q-8 15-7 18c1 2 15 15 17 15q4 1 4-5l3-6-1 7c-1 7-1 7 11 7h10l1-2 1-12 5-27q3-4-2 23l-1 12-1 6h2l24-1q2-1 2-33l1-32-3-1-3-1 3-2 2-7 1-3 8 3c11 0 15-12 7-20l-3-3 2-2 3-7 1-5 2 3 3 2-2 4c-3 7 0 16 7 17q10 1 12-11 0-6-4-10l-3-1 3-3 2-7v-5l-3-3-6-3-2-2 9-5 1 5q2 13 13 24 7 4 3 12c-1 6 2 22 7 28l2 2-2 2q-2 0-3 7c0 7-5 38-7 46-2 10-6 22-9 25s-2 3-15-1q-14-6-23 0l-9 2q-9 1-10 11t6 6q4-4 9 3l5 4h8l61 1h57q3-1 10-9l3-3 2 1q7 3 7 5t3 2c2 1 11-1 16-3q6-3 20 2 9 3 13 2 12-1 20-9l5-5 3 1q7 2 6-4-1-8-4-11l-6-2-7-3q-5-5-18-5h-8l-9 4-9 5-6-1c-11-2-11-2-13-9-4-11-5-17-6-37l-3-22 3-2q5-4 9-16 3-6 2-14l-1-9 6-5c8-8 11-15 13-29v-4l3 3q2 3 7 1 6 0 9-5l1-3 3 3c7 8 18 5 19-5l1-3 2 1q7 6 15 3 3-2 5-9v-3l3 1q16 4 15-12 0-6 1-4l6 1q4 1 6-2 7-5 3-15l4-1c10 2 16-8 10-17l-1-1h4c11 0 15-9 10-18q-2-4 1-4 6 1 9-5c2-4 1-11-2-13q-3-4 0-5l4-2c4-5 2-14-4-18l-3-2 3-1q6-4 1-8l-4-3-4-1q-10-6-9 4 0 5 4 7l4 3-3 2-2 2-4-8c-4-8-13-19-15-19q-3-1-2-4c2 0 23 7 33 12l36 23q5 4 2 4c-6 0-5 17 1 30 5 11 21 30 25 30l2-3c4-10-2-29-11-40q-6-7-2-6l8 7c6 7 7 8 7 11q0 17 13 26c5 3 6 3 11 4q7 1 10-2c9-6 9-19 0-28l-3-4h18v-2c1-5-12-17-24-22q-12-6-25-5h-8v2l4 8 6 6 6 5q0 4-13-9-27-27-41-35l-16-8-20-9-3-1-4-1q-4-1 3-1l17 5 10 4q3 0 4 3l1 2h7c24 1 50-18 59-43q2-6 4-5t4-1q3-2 3-8 1-10-5-9l-2-2v-2h7l2-2q3-8 1-14l-4-4-3-2 2-2c8-6 6-17-2-19q-5-2-2-3c4-2 5-12 1-16q-4-5-9-4-3 1 1-4 4-9-3-15-5-3-11-1l-2 1v-2l1-7q1-5-3-8-2-2-7-2l-5 1q-2 2-2-2c2-9-6-15-14-11l-4 1v-4q0-7-5-10-6-2-12 1l-4 2v-8l-3-3q-3-3-8-3c-8 0-12 8-9 16l1 2c-1 1-9-3-9-3l2-3c3-2 5-9 4-12q-2-5-8-7t-11 4q-4 7-4 1 0-8-10-8-7 0-10 7-1 6-4-1-4-11-15-5m20 14 4 5q4 2 0 6l-2 2-2-3-4-3q-4-2-1-5l2-4q0-3 3 2m-23 1 4 4 3 2-2 3-3 4-2-3-4-4-2-1 2-4q2-6 4-1m44 3q2 4 6 5 6 1 0 6-2 4-3 2l-1-3q0-4-6-7l-2-2 2-3 2-2zm-85 6q3 1 2 3l-1 5q0 4-5 4l-3 1 1-3 1-3 1-4q0-5 1-4zm127 7v4l-3-1q-6 0-10 3-2 3-3-4l-1-4 3 1q7 1 11-1l3-1zm-55 8 4 2q2 0-1 4-2 5-5 0 0-3-4-4-5-2-1-8l2-1 1 2q1 3 4 5m-25-2q5 6-1 4-7-2-4-6 1-5 5 2m50 8c4 1 4 1 12-2q1-1 1 3l1 3h-5q-4-1-8 1l-3 2-2-4q-1-4-5-5-5-1-2-6l2-3 3 5q1 5 6 6m-115-8q3 1-2 4-5 5-3-1 2-5 5-3m164 5v5l-2-1-11 2-2 1 1-4v-4h5l7-2 2-1zm18 14v5l-4-1-7 1h-2v-8h9q4-2 4 3m-34 0q0 4-4 3h-6l-5 2v-7l4 1 6-1q6-2 5 2m-56 2 5 4 2 2-4 4-3-4-3-4-1-5q1-2 4 3m-52 0c7 1 20 8 25 13q19 20 14 45-5 22-27 33l-7 3-10 1c-10 0-13-1-24-6-10-5-20-17-24-27l-1-16v-11l2-5q7-15 18-22 17-11 34-8m72 1q1 5-2 5-4-1-1-4 1-3 3-1m54 9v3h-4q-9 0-10-2t3-1l11-3zm31 4v6l-3-1-6 1q-5 3-2-1l1-6v-4h10zm-66-3v2l-12 4-3 1v-7h4l6-1h4zm79 16-1 2-2 5q0 9 7 12l3 2-2 2-2 2-2-2-6-9-4-6 1-2 1-5v-3l3 1zm-54 10q15 3 24 15 20 20 10 48c-2 6-10 17-14 20l-6 4q-6 4-17 6c-11 3-27-2-38-12q-19-15-15-40 3-26 27-38 14-6 29-3m-119 87h-6l6-1zm-152 3 4 11c7 17 19 28 44 41 24 12 39 16 65 19 12 2 33 2 38 1q6-2 7 1l-5 1c-20 2-18 1-33 15q-18 16-53 36l-28 14-1 1v1l-1-1-2 1q-2 3 3 5l-9 1h-14l-3-1c0-2-3-4-20-10l-13-6-8-6-8-7-7-5-3-3-3-6c-3-5-8-15-8-18l-1-3-1-5 1-4 2 2q4 2 2 3c-2 2-1 5 6 18q5 10 8 10l1 2q0 2 3 5l22 14 6 3c1 2 10 6 12 6l3 1q8 5 15 5c6 0 17-3 20-7l2-1 4-3 11-6 18-11 11-6 6-4 6-4 1-1 8-6 7-5 5-3q5-4 4-7 0-2-11-2l-19-2q-17-3-20 0l-9 7-13 11c-25 18-46 30-49 29q-4 0 6-7l12-7 30-21 10-7q9-6 7-9v-3l-8-4-15-6c-9-5-9-5-17 2q-13 13-48 36c-11 7-12 8-13 7q-2-2 10-10l34-26c15-12 17-13 16-16l1-2q1-2-5-6-7-4-11-10c-6-7-8-8-14-2l-8 7-11 10q-12 11-13 8l29-28c6-5 7-6 4-16q-3-12-1-14zm207 8 4 5h-11l-2-1c0-2 5-8 6-8zm-15 12q2 4 6 4l3 2q1 1-1 3l-2 2q1 5 7 9l3 1-3 1q-6 3-7 9t3 11l3 3-3 1c-7 3-9 13-4 18l2 4h-11v-6l-2-8q-4-4-1-8c6-5 11-18 11-30q1-12-5-11-4 0-2-4 3-3 3-1m22 7q6 2 2 5l-1 3c-1 1-4-4-4-6l-2-1-1-1zm0 15q-2 1-2-2l2-1zm8 23q4 9 1 8l-4 2q-4 3-3 0 0-5-5-8-5-2 1-4l5-2q1-4 5 4m-6 24q2 6-3 5l-4 2q-4 3-4-1l-2-3q-3-3 2-4 2 1 6-2 3-4 5 3m27 0-1 7q1 1-5 3-6 1-8 4l-2 2v-2l-2-5q-4-2 3-3l5-3 5-2 3-3 2-3zm-60 8 1 7 2 3-2-1h-8v-5l-1-6q-1-1 3-2h5zm-27 3-1 3q-1 3-2 2h-2q-2-1 0-4zm49 7 1 4 1 2h-5q-4 0-8 3-5 2-3 11v3l-3-1q-7-1-2-4 6-5 2-14-1-2 6-2 6 0 7-2 4-3 4 0m23 7q2 4-1 3c-3 0-10 3-11 5l-1 7v5h-6l-1-1 2-3q4-6 1-12-4-3 3-2 9-1 11-5 2-3 3 3m-64-1q4 1 3 4l2 5v2l-3-1-6-2q-3 0-3-2v-4l2-3zm-26 9c1 2 9 5 10 4v6q0 2-3-1c-3-2-10-3-12-2l1-5q2-5 4-2m37 6q5 0 1 4l-2 7q1 7-5 3l-1-1 1-4q2-5 1-8v-4l2 1zm-57-2v2q1 1-2 1l-2 1h-1q-1-2 1-3zm10 6q-3 13 4 18 5 2 2 6l-2 1-1-1q-3-6-6-6l-3-1v-5l1-4c2 1 0-5-3-8l-1-2h10zm-25 7q0 6 2 8l3 2 3 2 1 1-1 3q-3 5-3 2-1-5-7-8l-3-1 1-3v-4q-2-3 1-6 4-3 3 4m100-4-2 4q-2 5-1 8v4h-2l-5-1-1-1q3-4 4-11l-1-4h4zm-51 6 4 1q2 1-1 9l-1 3-4-3q-4-3-3-4l1-5q1-6 4-1m-67 6 2 3h1v5q-5 15 10 17 6 0 10-7l1-3 2 4 2 4-2 1q-8 6-12 17c-5 12-6 17-2 30l1 6-4 5-5 8q-3 6-4-2l-2-7-2-3 3-4c9-11 9-35 1-46l-4-5 2-3c4-5 2-14-3-16q-7-4 0-6h2zm-14 2-5 4q-6 8-5 1l-1-4q-2-2 5-2zm108 0 4 2q5-1 2 4l-2 5-1 3-8-2 1-3 2-5v-4zm-16 14 2 1-1 5q-2 7-4 3l-3-1-3-1-2-1 2-3 1-6v-2l3 2zm-95 6 4 2q5-1 0 6-4 11-4 24 1 12 7 21l2 3-1 2-4 12q-1 5-3-2c-4-11-11-16-13-9-2 5-1 18 2 24q4 12 9 13l2 1-1 3c-2 3-2 6 0 26v20l-1 14v4h-7q-14-2-21 4-4 4-10 3-7 0-9-2l-2-1v-12q0-19 4-38l3-14 1-7 3-1c8-5 14-26 11-37l-1-3 2-1 6-6c10-10 14-29 10-43l-2-5 2-1 4-4 1-3 2 3zm71 1q5 3 4 4-1 5-5 0l-5-3q-7 0-3-5l3-3 1 2zm-97-4 3 3q5 1-1 7-9 8-11 21-2 15 1 22l1 4-2 3-5 8-3 5q-2 0-2-5l-2-6-2-4 2-3c9-9 10-36 2-46q-3-3-1-4l3-1 8-3c8-4 8-4 9-1m79 9-1 2-1-2q-3-4 1-3h3zm-113 7-2 3v23l3 6 4 8 2 2-2 3-2 8-2 5-3-7-6-8-2-2 1-3q2-3 2-16v-13l-2-4-2-4c1-2 12-7 13-6zm-51 20-1 6v5l-2-2-5-2q-7-1 2-6 9-4 6-1m-20 13q-2 3-1 6v3l-3-2-5-2q-4 0 4-6 8-5 5 1m-22 13q0 7 4 10l2 3-1 3-2 6q0 7-3 3l-2-1 1-3c3-3 2-12 0-15l-4-3q-3 0 1-4 6-5 4 1m25 5-2 8v4l-3-2q-4-2 0-7l2-7v-4l3 3 2 2zm72 26v3q-3 1-2-4 0-5 2 1"/><path d="M553 303q-15 5-23 18c-5 9-6 26-3 36 3 9 12 19 18 22l6 3c5 2 23 2 29 0 20-6 31-27 27-49-3-14-14-27-28-31-6-1-21-1-26 1m26 12q17 8 17 26 2 13-8 22c-9 9-13 10-27 8-6-1-8-2-15-7q-10-10-9-22 1-20 17-27 12-6 25 0"/><path d="M560 319q-16 5-18 21c-1 10 5 21 14 24 10 2 19 3 19 1l1-1q4-1 10-6 7-10 4-23-1-6-6-10-11-10-24-6m110 18c-25 6-38 32-29 56q2 8 9 14 9 10 23 13 20 3 34-9 12-9 15-28 1-13-4-24c-2-5-10-14-15-17-8-5-23-7-33-5m22 14q17 8 18 27-1 23-24 29c-12 3-27-4-33-16-7-14 1-33 17-41q10-5 22 1"/><path d="M674 354q-14 3-18 17c-5 17 7 32 25 32q13 0 21-12l3-4v-17l-3-5q-10-15-28-11m-295-95c-10 1-16 4-27 10q-14 7-20 19c-5 10-6 10-15 13-14 4-12 4-19-4-9-12-11-13-15-6q-3 6 1 10l7 7 3 5-2 12-3 15q0 8-8 17-18 21-21 34c-2 6-2 8-2 16 1 12 1 14 11 34l9 21c4 12 4 12 8 12q6 2 7-10c2-7 10-28 17-40l5-9v-10q0-20-10-43c-4-8-5-11-2-22l1-9 1-3c1-1 0-2 10 10l11 12 5 7-1 4c-5 15 3 30 18 35 13 5 29-2 34-14q4-14 0-26-8-14-26-15c-7 0-8 1-12 3l-4 2-4-3-10-12-9-11q-7-5 6-7l7-2 6 4c12 8 19 10 40 10 18 0 18-1 36-9q14-6 18-12 11-9 22-12 6-2 4-8c0-2-1-2-14-8l-10-5q-25-13-53-12m174 162 1-1v-1zm160 36q-11 3-2 10 15 14 40 11 25-5 11-13c-16-8-38-11-49-8m-48 89q-3 8-2 10l7 3 7 3 2 20q-1 3-10 4l-6 2-2 1 1 4 2 6c1 9 2 9 14 3q21-10 44-16l19-5 11-3q5-2 3-4l-6-2c-13-3-34-11-39-14-6-3-38-16-41-16q-2-1-4 4m42 25q11 2-5 6l-8 3q-2 1-2-6l1-7 5 1zm-10 41-11 11c-5 2-20 12-23 15l-4 5v4l6 4 24 19 8 6 6 3q5 6 9 1l4-4 5-3 3-3 2-3q0-2 3-2l13-7c18-13 18-14 8-23l-21-17-5-3c-3-5-12-12-15-12zm19 15 7 5 1 1 5 3 6 5 1 1-2 2-9 7-11 8c-6 5-7 5-11 2l-5-3-3-3-8-7q-8-5-3-9l9-6 10-6 5-4q1-4 8 4m-14 64c-8 9-10 12-21 21l-13 11-5 5-4 4q0 2 5 6 9 9 13-1l4-4 9-8 10-9v10l1 12h13l1-13 1-11 12 11q18 18 18 16l10-8q2-2-4-7l-8-8-10-9-16-14c-9-9-11-9-16-4"/></g></svg>